<svg xmlns="http://www.w3.org/2000/svg" xmlns:xlink="http://www.w3.org/1999/xlink"><defs>
<filter id="filter0_i_346_104" x="0" y="0" width="40" height="44" filterUnits="userSpaceOnUse" color-interpolation-filters="sRGB">
<feFlood flood-opacity="0" result="BackgroundImageFix"/>
<feBlend mode="normal" in="SourceGraphic" in2="BackgroundImageFix" result="shape"/>
<feColorMatrix in="SourceAlpha" type="matrix" values="0 0 0 0 0 0 0 0 0 0 0 0 0 0 0 0 0 0 127 0" result="hardAlpha"/>
<feOffset dy="4"/>
<feGaussianBlur stdDeviation="2"/>
<feComposite in2="hardAlpha" operator="arithmetic" k2="-1" k3="1"/>
<feColorMatrix type="matrix" values="0 0 0 0 0 0 0 0 0 0 0 0 0 0 0 0 0 0 0.25 0"/>
<feBlend mode="normal" in2="shape" result="effect1_innerShadow_346_104"/>
</filter>
</defs><symbol id="icon-cart" viewBox="0 0 35 35">
<path d="M30.5677 23.3333H12.2373C11.9331 23.3338 11.6379 23.2335 11.4 23.0489C11.1621 22.8642 10.9957 22.6062 10.9282 22.3173L7.84168 9.21571C7.79653 9.02432 7.79626 8.82548 7.84089 8.63399C7.88552 8.44249 7.9739 8.26326 8.09945 8.10964C8.225 7.95602 8.38449 7.83196 8.56605 7.7467C8.74761 7.66144 8.94657 7.61718 9.14812 7.61719H33.6568C33.8586 7.61678 34.0579 7.66076 34.2398 7.74585C34.4217 7.83094 34.5815 7.95495 34.7074 8.10862C34.8332 8.26229 34.9218 8.44166 34.9666 8.63335C35.0114 8.82504 35.0112 9.02411 34.966 9.21571L31.8741 22.3173C31.8067 22.6058 31.6407 22.8635 31.4034 23.048C31.166 23.2326 30.8714 23.3332 30.5677 23.3333ZM13.3042 20.7214H29.5007L31.9733 10.2318H10.8308L13.3042 20.7214Z" fill="#E81F43"/>
<path d="M14.861 35.0002C13.8451 35.0002 12.8521 34.7067 12.0074 34.1568C11.1627 33.6069 10.5044 32.8253 10.1156 31.9109C9.72683 30.9964 9.62512 29.9902 9.82331 29.0194C10.0215 28.0486 10.5107 27.1569 11.229 26.457C11.9474 25.7571 12.8626 25.2805 13.859 25.0874C14.8553 24.8943 15.8881 24.9934 16.8266 25.3722C17.7652 25.7509 18.5674 26.3924 19.1318 27.2154C19.6962 28.0384 19.9974 29.0059 19.9974 29.9957C19.996 31.3226 19.4544 32.5947 18.4914 33.5329C17.5285 34.4711 16.2228 34.9989 14.861 35.0002ZM14.861 27.604C14.3753 27.604 13.9005 27.7444 13.4967 28.0073C13.0928 28.2703 12.7781 28.644 12.5922 29.0812C12.4064 29.5184 12.3578 29.9995 12.4527 30.4637C12.5475 30.9278 12.7814 31.3541 13.125 31.6887C13.4685 32.0233 13.9061 32.2511 14.3825 32.3433C14.8589 32.4355 15.3527 32.388 15.8014 32.2068C16.25 32.0256 16.6335 31.7188 16.9032 31.3252C17.1729 30.9316 17.3168 30.469 17.3166 29.9957C17.3159 29.3615 17.0569 28.7534 16.5966 28.305C16.1362 27.8566 15.512 27.6045 14.861 27.604Z" fill="#E81F43"/>
<path d="M27.945 35.0002C26.9291 35.0002 25.936 34.7067 25.0914 34.1568C24.2467 33.6069 23.5883 32.8253 23.1996 31.9109C22.8108 30.9964 22.7091 29.9902 22.9073 29.0194C23.1055 28.0486 23.5947 27.1569 24.313 26.457C25.0314 25.7571 25.9466 25.2805 26.9429 25.0874C27.9393 24.8943 28.9721 24.9934 29.9106 25.3722C30.8492 25.7509 31.6514 26.3924 32.2158 27.2154C32.7802 28.0384 33.0814 29.0059 33.0814 29.9957C33.08 31.3226 32.5384 32.5947 31.5754 33.5329C30.6125 34.4711 29.3068 34.9989 27.945 35.0002ZM27.945 27.604C27.4593 27.604 26.9845 27.7444 26.5806 28.0073C26.1768 28.2703 25.8621 28.644 25.6762 29.0812C25.4904 29.5184 25.4418 29.9995 25.5366 30.4637C25.6315 30.9278 25.8654 31.3541 26.2089 31.6887C26.5524 32.0233 26.9901 32.2511 27.4665 32.3433C27.9429 32.4355 28.4367 32.388 28.8853 32.2068C29.334 32.0256 29.7175 31.7188 29.9872 31.3252C30.2569 30.9316 30.4008 30.469 30.4006 29.9957C30.3999 29.3615 30.1409 28.7534 29.6805 28.305C29.2201 27.8566 28.596 27.6045 27.945 27.604Z" fill="#E81F43"/>
<path d="M9.14866 10.2293C8.8673 10.2293 8.59308 10.143 8.36486 9.98266C8.13663 9.82233 7.96598 9.5961 7.87707 9.33601L5.57963 2.61196H1.3404C0.984901 2.61196 0.643966 2.47436 0.392593 2.22945C0.14122 1.98453 0 1.65235 0 1.30598C0 0.959612 0.14122 0.627431 0.392593 0.382512C0.643966 0.137594 0.984901 0 1.3404 0H6.55007C6.83143 2.53642e-05 7.10565 0.0863141 7.33388 0.246641C7.5621 0.406967 7.73275 0.633201 7.82166 0.893289L10.4247 8.51063C10.4918 8.70692 10.5101 8.91595 10.478 9.12047C10.446 9.325 10.3645 9.51918 10.2403 9.68701C10.1162 9.85485 9.95283 9.99154 9.76381 10.0858C9.57478 10.1801 9.36548 10.2293 9.15313 10.2293H9.14866Z" fill="#E81F43"/>
</symbol><symbol id="icon-check" viewBox="0 0 12 12">
<path d="M1 7L4 10L11 3" stroke="#A58E18" stroke-width="2" stroke-linecap="round" stroke-linejoin="round"/>
</symbol><symbol id="icon-fb" viewBox="0 0 13 24">
<path d="M8.52356 15.5043C8.52319 14.5092 9.32974 13.7024 10.3248 13.7024C11.2145 13.7024 11.971 13.0527 12.1054 12.1732L12.1862 11.644C12.3565 10.5297 11.4941 9.52565 10.367 9.52565C9.35058 9.52565 8.52662 8.70169 8.52662 7.68528V6.81681C8.52662 5.67448 9.08477 4.56006 10.8671 4.56006C11.8648 4.56006 12.6736 3.75127 12.6736 2.75356V2.63853C12.6736 1.69656 11.9912 0.884119 11.0527 0.802381C10.5227 0.756216 9.99104 0.729366 9.45871 0.721924C6.17871 0.721924 4.03545 2.72192 4.03545 6.34425V7.70519C4.03545 8.7106 3.2204 9.52565 2.21499 9.52565C1.20958 9.52565 0.394531 10.3407 0.394531 11.3461V11.8801C0.394531 12.8865 1.21041 13.7024 2.21685 13.7024C3.22329 13.7024 4.03918 14.5183 4.03918 15.5247V21.554C4.03918 22.7929 5.04354 23.7973 6.28248 23.7973C7.52175 23.7973 8.52625 22.7924 8.52579 21.5531L8.52356 15.5043Z" fill="white"/>
</symbol><symbol id="icon-heart" viewBox="0 0 36 35">
<path fill-rule="evenodd" clip-rule="evenodd" d="M18.0811 5.17339L16.2631 3.08901C12.671 -1.02967 6.84688 -1.02967 3.2547 3.08901C-0.337503 7.2077 -0.337503 13.8854 3.2547 18.0041L18.0371 34.953L18.0401 34.9496L18.0841 35L32.8664 18.0511C36.4586 13.9324 36.4586 7.25474 32.8664 3.13606C29.2743 -0.982632 23.4502 -0.982632 19.858 3.13606L18.0811 5.17339ZM18.0401 29.526L26.2956 20.0603L28.7219 17.3738L28.7244 17.3765L30.5012 15.3393C32.7873 12.7183 32.7873 8.46888 30.5012 5.84789C28.2153 3.22692 24.5091 3.22692 22.2232 5.84789L18.0829 10.595L18.0707 10.5811L18.069 10.5832L13.898 5.80085C11.612 3.17986 7.9058 3.17986 5.61987 5.80085C3.33392 8.42182 3.33392 12.6713 5.61987 15.2923L9.86688 20.1618L9.86989 20.1583L18.0401 29.526Z" fill="#8F1FE8" fill-opacity="0.86"/>
</symbol><symbol id="icon-info" viewBox="0 0 50 50">
<path d="M25 48.4375C20.3645 48.4375 15.8331 47.0629 11.9788 44.4876C8.12456 41.9122 5.12051 38.2518 3.34658 33.9692C1.57266 29.6865 1.10851 24.974 2.01286 20.4276C2.9172 15.8812 5.1494 11.705 8.42719 8.42719C11.705 5.1494 15.8812 2.9172 20.4276 2.01286C24.974 1.10851 29.6865 1.57266 33.9692 3.34658C38.2518 5.12051 41.9122 8.12456 44.4876 11.9788C47.0629 15.8331 48.4375 20.3645 48.4375 25C48.4375 31.216 45.9682 37.1774 41.5728 41.5728C37.1774 45.9682 31.216 48.4375 25 48.4375ZM25 4.68751C20.9826 4.68751 17.0554 5.87882 13.715 8.11078C10.3746 10.3427 7.77111 13.5151 6.23371 17.2268C4.6963 20.9384 4.29405 25.0225 5.07781 28.9628C5.86157 32.903 7.79615 36.5224 10.6369 39.3631C13.4777 42.2039 17.097 44.1384 21.0372 44.9222C24.9775 45.706 29.0616 45.3037 32.7733 43.7663C36.4849 42.2289 39.6573 39.6254 41.8892 36.285C44.1212 32.9447 45.3125 29.0174 45.3125 25C45.3125 19.6128 43.1724 14.4462 39.3631 10.6369C35.5538 6.82757 30.3872 4.68751 25 4.68751Z" fill="#E81F43" fill-opacity="0.72"/>
<path d="M25 37.5C24.3819 37.5 23.7778 37.3167 23.2638 36.9734C22.7499 36.63 22.3494 36.1419 22.1129 35.5709C21.8764 34.9999 21.8145 34.3715 21.935 33.7653C22.0556 33.1592 22.3533 32.6023 22.7903 32.1653C23.2273 31.7283 23.7842 31.4306 24.3903 31.31C24.9965 31.1895 25.6249 31.2514 26.1959 31.4879C26.7669 31.7244 27.255 32.1249 27.5984 32.6388C27.9417 33.1527 28.125 33.7569 28.125 34.375C28.125 35.2038 27.7958 35.9987 27.2097 36.5847C26.6237 37.1708 25.8288 37.5 25 37.5Z" fill="#E81F43" fill-opacity="0.72"/>
<path d="M25 28.125C24.5856 28.125 24.1882 27.9604 23.8951 27.6674C23.6021 27.3743 23.4375 26.9769 23.4375 26.5625V12.5C23.4375 12.0856 23.6021 11.6882 23.8951 11.3951C24.1882 11.1021 24.5856 10.9375 25 10.9375C25.4144 10.9375 25.8118 11.1021 26.1049 11.3951C26.3979 11.6882 26.5625 12.0856 26.5625 12.5V26.5625C26.5625 26.9769 26.3979 27.3743 26.1049 27.6674C25.8118 27.9604 25.4144 28.125 25 28.125Z" fill="#E81F43" fill-opacity="0.72"/>
</symbol><symbol id="icon-insta" viewBox="0 0 22 22">
<path fill-rule="evenodd" clip-rule="evenodd" d="M10.9989 0.860352C13.7524 0.860352 14.0984 0.871515 15.1794 0.921747C16.0206 0.937842 16.853 1.09701 17.6408 1.39244C18.3141 1.65347 18.9255 2.05201 19.4362 2.56263C19.9468 3.07325 20.3453 3.68473 20.6064 4.35803C20.9012 5.14408 21.0603 5.97449 21.0771 6.81384C21.1273 7.89477 21.1384 8.24082 21.1384 10.9943C21.1384 13.7478 21.1273 14.0938 21.0771 15.1748C21.061 16.016 20.9018 16.8484 20.6064 17.6362C20.3453 18.3095 19.9468 18.9209 19.4362 19.4316C18.9255 19.9422 18.3141 20.3407 17.6408 20.6017C16.8551 20.8985 16.0246 21.0595 15.185 21.078C14.104 21.1283 13.758 21.1394 11.0045 21.1394C8.251 21.1394 7.90496 21.1283 6.82403 21.078C5.9828 21.0619 5.15044 20.9028 4.36263 20.6073C3.68933 20.3463 3.07785 19.9478 2.56724 19.4371C2.05662 18.9265 1.65808 18.315 1.39705 17.6417C1.10034 16.856 0.93928 16.0256 0.920768 15.1859C0.870535 14.105 0.859375 13.759 0.859375 11.0055C0.859375 8.25198 0.870535 7.90593 0.920768 6.825C0.936863 5.98377 1.09604 5.15142 1.39147 4.36361C1.65184 3.68928 2.05009 3.07671 2.56075 2.5651C3.0714 2.05349 3.68321 1.65409 4.35705 1.39244C5.1431 1.09764 5.97351 0.938473 6.81286 0.921747C7.89938 0.871515 8.24542 0.860352 10.9989 0.860352ZM15.0919 2.74686C14.024 2.69849 13.7022 2.68733 10.9989 2.68733C8.29566 2.68733 7.97007 2.69849 6.90589 2.74686C6.26189 2.75346 5.62379 2.8705 5.01937 3.09291C4.58133 3.26179 4.18351 3.52055 3.85155 3.85252C3.51958 4.18449 3.26082 4.58231 3.09193 5.02035C2.86931 5.62348 2.75164 6.26028 2.74403 6.90314C2.69566 7.97105 2.68449 8.29291 2.68449 10.9962C2.68449 13.6994 2.69566 14.025 2.74403 15.0892C2.75079 15.7345 2.86847 16.3739 3.09193 16.9794C3.26082 17.4175 3.51958 17.8153 3.85155 18.1473C4.18351 18.4792 4.58133 18.738 5.01937 18.9069C5.6225 19.1295 6.25931 19.2472 6.90217 19.2548C7.97008 19.3031 8.29194 19.3143 10.9952 19.3143C13.6984 19.3143 14.024 19.3031 15.0882 19.2548C15.7336 19.248 16.373 19.1303 16.9784 18.9069C17.4165 18.738 17.8143 18.4792 18.1463 18.1473C18.4782 17.8153 18.737 17.4175 18.9059 16.9794C19.1285 16.3763 19.2462 15.7395 19.2538 15.0966C19.3022 14.0287 19.3133 13.7069 19.3133 11.0036C19.3133 8.30035 19.3022 7.97477 19.2538 6.91058C19.247 6.26522 19.1293 5.62583 18.9059 5.02035C18.737 4.58231 18.4782 4.18449 18.1463 3.85252C17.8143 3.52055 17.4165 3.26179 16.9784 3.09291C16.3752 2.87092 15.7384 2.75388 15.0957 2.74686H15.0919ZM10.9989 14.3804C11.6675 14.3804 12.3211 14.1821 12.877 13.8106C13.4329 13.4392 13.8662 12.9112 14.1221 12.2935C14.3779 11.6758 14.4449 10.9961 14.3144 10.3404C14.184 9.68464 13.862 9.0823 13.3893 8.60954C12.9165 8.13677 12.3142 7.81481 11.6584 7.68438C11.0027 7.55394 10.323 7.62088 9.70526 7.87674C9.08756 8.1326 8.55961 8.56589 8.18816 9.1218C7.81671 9.67771 7.61844 10.3313 7.61844 10.9999C7.61894 11.8963 7.97525 12.7558 8.6091 13.3897C9.24296 14.0235 10.1025 14.3799 10.9989 14.3804ZM10.9989 5.79244C12.0292 5.79244 13.0364 6.09796 13.893 6.67037C14.7497 7.24278 15.4174 8.05636 15.8117 9.00823C16.206 9.96011 16.3091 11.0075 16.1081 12.018C15.9071 13.0285 15.411 13.9567 14.6824 14.6853C13.9539 15.4138 13.0257 15.91 12.0152 16.111C11.0047 16.312 9.95727 16.2088 9.00539 15.8145C8.05352 15.4202 7.23994 14.7525 6.66753 13.8959C6.09513 13.0392 5.78961 12.032 5.78961 11.0017C5.78961 9.62015 6.33845 8.29515 7.31538 7.31821C8.29231 6.34128 9.61732 5.79244 10.9989 5.79244ZM17.6277 5.58779C17.6277 5.82844 17.5564 6.06369 17.4227 6.26378C17.289 6.46387 17.099 6.61983 16.8766 6.71192C16.6543 6.80401 16.4097 6.82811 16.1736 6.78116C15.9376 6.73421 15.7208 6.61833 15.5506 6.44816C15.3805 6.278 15.2646 6.06119 15.2176 5.82517C15.1707 5.58914 15.1948 5.3445 15.2869 5.12217C15.379 4.89983 15.5349 4.70981 15.735 4.57611C15.9351 4.44241 16.1704 4.37105 16.411 4.37105C16.7337 4.37105 17.0432 4.49924 17.2714 4.72743C17.4996 4.95561 17.6277 5.26509 17.6277 5.58779Z" fill="white"/>
</symbol><symbol id="icon-map" viewBox="0 0 70 70">
<path d="M35 30.625C37.4162 30.625 39.375 28.6662 39.375 26.25C39.375 23.8338 37.4162 21.875 35 21.875C32.5838 21.875 30.625 23.8338 30.625 26.25C30.625 28.6662 32.5838 30.625 35 30.625Z" stroke="#177BEF" stroke-opacity="0.86" stroke-width="2" stroke-linecap="round" stroke-linejoin="round"/>
<path d="M46.4628 26.0453C46.5062 27.9759 46.0222 29.8818 45.0628 31.5578C42.7003 35.4369 35.0003 46.6661 35.0003 46.6661C35.0003 46.6661 27.3003 35.4369 24.9378 31.5578C23.9785 29.8818 23.4945 27.9759 23.5378 26.0453C23.5378 23.0052 24.7455 20.0897 26.8951 17.9401C29.0448 15.7904 31.9603 14.5828 35.0003 14.5828C38.0404 14.5828 40.9559 15.7904 43.1055 17.9401C45.2552 20.0897 46.4628 23.0052 46.4628 26.0453V26.0453Z" stroke="#177BEF" stroke-opacity="0.86" stroke-width="2" stroke-linecap="round" stroke-linejoin="round"/>
<path d="M38.6167 41.3574C41.5333 42.2616 43.75 44.2741 43.75 46.6658C43.75 49.8741 39.8417 52.4991 35 52.4991C30.1583 52.4991 26.25 49.8741 26.25 46.6658C26.25 44.3033 28.35 42.2616 31.3833 41.3574" stroke="#177BEF" stroke-opacity="0.86" stroke-width="2" stroke-linecap="round" stroke-linejoin="round"/>
</symbol><symbol id="icon-phone" viewBox="0 0 37 37">
<path d="M22.5635 7.66667C24.1914 7.98428 25.6875 8.78043 26.8603 9.95323C28.0331 11.126 28.8293 12.6221 29.1469 14.25L22.5635 7.66667ZM22.5635 1C25.9457 1.37573 29.0995 2.89029 31.5073 5.29501C33.915 7.69973 35.4335 10.8517 35.8135 14.2333L22.5635 1ZM34.1469 27.5333V32.5333C34.1487 32.9975 34.0537 33.457 33.8677 33.8822C33.6818 34.3075 33.409 34.6893 33.067 35.0031C32.725 35.3169 32.3212 35.5558 31.8814 35.7045C31.4417 35.8532 30.9758 35.9085 30.5135 35.8667C25.3849 35.3094 20.4585 33.5569 16.1302 30.75C12.1032 28.1911 8.68909 24.777 6.1302 20.75C3.31349 16.402 1.5606 11.4517 1.01353 6.3C0.971879 5.83911 1.02665 5.3746 1.17436 4.93604C1.32207 4.49748 1.55948 4.09448 1.87147 3.7527C2.18346 3.41092 2.5632 3.13785 2.98651 2.95087C3.40982 2.76389 3.86743 2.6671 4.3302 2.66667H9.3302C10.139 2.65871 10.9232 2.94513 11.5365 3.47255C12.1497 3.99998 12.5503 4.73241 12.6635 5.53333C12.8746 7.13344 13.2659 8.70455 13.8302 10.2167C14.0544 10.8132 14.103 11.4615 13.97 12.0848C13.8371 12.7081 13.5283 13.2802 13.0802 13.7333L10.9635 15.85C13.3361 20.0226 16.791 23.4774 20.9635 25.85L23.0802 23.7333C23.5333 23.2852 24.1055 22.9764 24.7287 22.8435C25.352 22.7106 26.0003 22.7591 26.5969 22.9833C28.109 23.5476 29.6801 23.939 31.2802 24.15C32.0898 24.2642 32.8292 24.672 33.3578 25.2958C33.8863 25.9196 34.1671 26.716 34.1469 27.5333Z" stroke="#177BEF" stroke-opacity="0.86" stroke-width="2" stroke-linecap="round" stroke-linejoin="round"/>
</symbol><symbol id="icon-search" viewBox="0 0 35 35">
<path d="M14.5586 0C6.84136 0 0.599609 6.09868 0.599609 13.639C0.599609 21.1793 6.84136 27.2779 14.5586 27.2779C17.3138 27.2779 19.8637 26.4882 22.0256 25.1468L32.1099 35L35.5996 31.5903L25.6436 21.8875C27.4334 19.5935 28.5175 16.751 28.5175 13.639C28.5175 6.09868 22.2757 0 14.5586 0ZM14.5586 3.20917C20.4699 3.20917 25.233 7.86309 25.233 13.639C25.233 19.4148 20.4699 24.0688 14.5586 24.0688C8.64717 24.0688 3.88407 19.4148 3.88407 13.639C3.88407 7.86309 8.64717 3.20917 14.5586 3.20917Z" fill="#2CD93D"/>
</symbol><symbol id="icon-slider-arr" viewBox="0 0 32 44">
<path d="M0.5 0.125H9.25L31.125 22L9.25 43.875H0.5L22.375 22L0.5 0.125Z" fill="#58267E"/>
</symbol><symbol id="icon-tg" viewBox="0 0 23 19">
<path fill-rule="evenodd" clip-rule="evenodd" d="M2.1765 8.65578C7.99231 6.12182 11.8701 4.45112 13.81 3.64368C19.3505 1.34043 20.5077 0.940426 21.2519 0.925542C21.5278 0.920178 21.7985 1.00152 22.0258 1.1581C22.1853 1.29563 22.287 1.48834 22.3105 1.69764C22.3505 1.95793 22.3618 2.22185 22.3439 2.48461C22.0444 5.6474 20.7439 13.2921 20.0835 16.8251C19.8044 18.3135 19.2537 18.8214 18.7198 18.8716C17.5625 18.9776 16.6732 18.1051 15.557 17.3702C13.8007 16.2186 12.8091 15.5097 11.1049 14.3786C9.13464 13.0762 10.4128 12.3674 11.5346 11.2028C11.8286 10.8976 16.93 6.25392 17.0305 5.83345C17.0437 5.77136 17.0422 5.70703 17.026 5.64563C17.0099 5.58424 16.9795 5.52749 16.9374 5.47996C16.8764 5.44179 16.8072 5.41839 16.7355 5.41161C16.6638 5.40483 16.5915 5.41485 16.5244 5.44089C16.3495 5.47934 13.5452 7.33299 8.11139 11.0018C7.31511 11.5488 6.59387 11.8155 5.94767 11.8018C5.23511 11.7851 3.8658 11.3981 2.84626 11.0576C1.59789 10.6521 0.613712 10.4381 0.691851 9.75531C0.737743 9.3981 1.23262 9.03159 2.1765 8.65578Z" fill="white"/>
</symbol><symbol id="icon-user" viewBox="0 0 40 40">
<g filter="url(#filter0_i_346_104)">
<path fill-rule="evenodd" clip-rule="evenodd" d="M26.6663 14.9997C26.6663 18.6815 23.6815 21.6663 19.9997 21.6663C16.3178 21.6663 13.333 18.6815 13.333 14.9997C13.333 11.3178 16.3178 8.33301 19.9997 8.33301C23.6815 8.33301 26.6663 11.3178 26.6663 14.9997ZM23.333 14.9997C23.333 16.8407 21.8407 18.333 19.9997 18.333C18.1587 18.333 16.6663 16.8407 16.6663 14.9997C16.6663 13.1587 18.1587 11.6663 19.9997 11.6663C21.8407 11.6663 23.333 13.1587 23.333 14.9997Z" fill="#177BEF" fill-opacity="0.86"/>
<path fill-rule="evenodd" clip-rule="evenodd" d="M20.5 2C10.835 2 3 9.83502 3 19.5C3 29.1649 10.835 37 20.5 37C30.1649 37 38 29.1649 38 19.5C38 9.83502 30.1649 2 20.5 2ZM6.18182 19.5C6.18182 22.8253 7.31542 25.8859 9.21724 28.3163C11.8334 24.8914 15.96 22.6818 20.6026 22.6818C25.1849 22.6818 29.2646 24.8345 31.8853 28.1837C33.7252 25.775 34.8182 22.7652 34.8182 19.5C34.8182 11.5923 28.4078 5.18182 20.5 5.18182C12.5923 5.18182 6.18182 11.5923 6.18182 19.5ZM20.5 33.8182C17.0792 33.8182 13.9385 32.6185 11.4758 30.617C13.4897 27.7428 16.8267 25.8636 20.6026 25.8636C24.3315 25.8636 27.6325 27.6965 29.6538 30.5105C27.1721 32.5758 23.9811 33.8182 20.5 33.8182Z" fill="#177BEF" fill-opacity="0.86"/>
</g>

</symbol><symbol id="icon-whatsapp" viewBox="0 0 21 21">
<path d="M0.214844 20.9537L1.6195 15.8263C0.532806 13.9393 0.0989463 11.7466 0.385186 9.588C0.671425 7.4294 1.66176 5.42552 3.20269 3.88702C4.74362 2.34851 6.74906 1.36131 8.9081 1.07847C11.0671 0.795622 13.2592 1.23293 15.1444 2.32259C17.0297 3.41225 18.5028 5.09341 19.3354 7.10543C20.168 9.11745 20.3136 11.3479 19.7496 13.4511C19.1856 15.5543 17.9436 17.4127 16.216 18.7382C14.4885 20.0637 12.3719 20.7823 10.1944 20.7825C8.54264 20.7816 6.91742 20.3671 5.46694 19.577L0.214844 20.9537ZM5.70321 17.7909L6.00462 17.977C7.27201 18.7275 8.7177 19.124 10.1907 19.1249C12.0147 19.1252 13.7871 18.5194 15.2293 17.4026C16.6715 16.2859 17.7016 14.7215 18.1578 12.9554C18.614 11.1893 18.4703 9.32173 17.7494 7.64622C17.0284 5.97071 15.7711 4.5823 14.1751 3.69926C12.579 2.81622 10.7348 2.48862 8.9323 2.76798C7.12978 3.04734 5.47122 3.9178 4.21735 5.24253C2.96348 6.56725 2.1854 8.27111 2.00545 10.0862C1.8255 11.9014 2.25387 13.7249 3.22322 15.27L3.40927 15.5807L2.57764 18.6151L5.70321 17.7909Z" fill="white"/>
<path fill-rule="evenodd" clip-rule="evenodd" d="M15.1773 13.2402C15.1159 13.136 14.9503 13.0746 14.7029 12.9518C14.4554 12.829 13.2405 12.2299 13.0136 12.1462C12.7866 12.0625 12.6229 12.0234 12.4554 12.2709C12.288 12.5183 11.8173 13.0746 11.674 13.2402C11.5308 13.4057 11.3838 13.4262 11.1382 13.3016C10.413 13.0103 9.74389 12.5955 9.16054 12.0755C8.62 11.5755 8.15666 10.9981 7.78565 10.362C7.64054 10.1146 7.76891 9.98993 7.89356 9.85783C8.01822 9.72574 8.14101 9.5676 8.26566 9.42434C8.36795 9.29955 8.45133 9.16039 8.5131 9.01132C8.54567 8.94297 8.56083 8.86763 8.55726 8.79201C8.55369 8.71638 8.53149 8.64281 8.49263 8.57783C8.43123 8.45504 7.93449 7.2383 7.72984 6.74341C7.52519 6.24853 7.32612 6.32667 7.1717 6.31737C7.01728 6.30806 6.86287 6.31737 6.69915 6.31737C6.572 6.31947 6.44669 6.3482 6.33133 6.40172C6.21596 6.45523 6.1131 6.53234 6.02938 6.62806C5.75192 6.89114 5.53185 7.20874 5.38297 7.56092C5.23409 7.9131 5.15964 8.29225 5.16427 8.67458C5.16427 9.89132 6.04985 11.0671 6.1745 11.2327C6.29915 11.3983 7.91776 13.895 10.3978 14.9648C10.8582 15.1635 11.3289 15.3374 11.808 15.4857C12.3124 15.6389 12.8455 15.6727 13.3652 15.5843C13.8396 15.5136 14.8275 14.9853 15.0396 14.4085C15.2517 13.8318 15.2387 13.3425 15.1773 13.2402Z" fill="white"/>
</symbol></svg>