<svg width="36" height="35" viewBox="0 0 36 35" fill="none" xmlns="http://www.w3.org/2000/svg">
<path fill-rule="evenodd" clip-rule="evenodd" d="M18.0811 5.17339L16.2631 3.08901C12.671 -1.02967 6.84688 -1.02967 3.2547 3.08901C-0.337503 7.2077 -0.337503 13.8854 3.2547 18.0041L18.0371 34.953L18.0401 34.9496L18.0841 35L32.8664 18.0511C36.4586 13.9324 36.4586 7.25474 32.8664 3.13606C29.2743 -0.982632 23.4502 -0.982632 19.858 3.13606L18.0811 5.17339ZM18.0401 29.526L26.2956 20.0603L28.7219 17.3738L28.7244 17.3765L30.5012 15.3393C32.7873 12.7183 32.7873 8.46888 30.5012 5.84789C28.2153 3.22692 24.5091 3.22692 22.2232 5.84789L18.0829 10.595L18.0707 10.5811L18.069 10.5832L13.898 5.80085C11.612 3.17986 7.9058 3.17986 5.61987 5.80085C3.33392 8.42182 3.33392 12.6713 5.61987 15.2923L9.86688 20.1618L9.86989 20.1583L18.0401 29.526Z" fill="#8F1FE8" fill-opacity="0.86"/>
</svg>
