<svg width="50" height="42" viewBox="0 0 50 42" fill="none" xmlns="http://www.w3.org/2000/svg">
<g filter="url(#filter0_i_99_2552)">
<path d="M34.933 26.6664H13.9843C13.6367 26.667 13.2992 26.5523 13.0274 26.3413C12.7555 26.1303 12.5653 25.8355 12.4882 25.5052L8.9608 10.5322C8.90921 10.3135 8.9089 10.0862 8.9599 9.86736C9.0109 9.64851 9.11191 9.44368 9.25539 9.26812C9.39888 9.09256 9.58115 8.95078 9.78864 8.85334C9.99614 8.7559 10.2235 8.70531 10.4539 8.70533H38.4634C38.694 8.70486 38.9218 8.75512 39.1296 8.85237C39.3375 8.94961 39.5202 9.09133 39.664 9.26695C39.8078 9.44257 39.9091 9.64756 39.9603 9.86664C40.0115 10.0857 40.0112 10.3132 39.9596 10.5322L36.4261 25.5052C36.349 25.835 36.1593 26.1294 35.8881 26.3404C35.6168 26.5513 35.2801 26.6663 34.933 26.6664ZM15.2036 23.6814H33.7136L36.5394 11.6934H12.3769L15.2036 23.6814Z" fill="#E81F43"/>
<path d="M16.9834 40C15.8224 40 14.6875 39.6646 13.7221 39.0361C12.7568 38.4077 12.0044 37.5144 11.5601 36.4694C11.1158 35.4243 10.9996 34.2743 11.2261 33.1649C11.4526 32.0554 12.0116 31.0363 12.8326 30.2364C13.6535 29.4366 14.6995 28.8919 15.8382 28.6712C16.9769 28.4505 18.1571 28.5638 19.2298 28.9966C20.3024 29.4295 21.2192 30.1626 21.8642 31.1031C22.5092 32.0437 22.8535 33.1495 22.8535 34.2807C22.8519 35.797 22.2329 37.2509 21.1324 38.3231C20.0319 39.3954 18.5397 39.9985 16.9834 40ZM16.9834 31.5473C16.4283 31.5473 15.8857 31.7077 15.4241 32.0082C14.9626 32.3087 14.6029 32.7358 14.3905 33.2355C14.1782 33.7352 14.1226 34.285 14.231 34.8155C14.3394 35.3459 14.6068 35.8331 14.9993 36.2155C15.3919 36.5978 15.8921 36.8582 16.4365 36.9635C16.981 37.0689 17.5453 37.0147 18.058 36.8075C18.5708 36.6004 19.009 36.2498 19.3173 35.8C19.6255 35.3502 19.79 34.8215 19.7897 34.2807C19.7889 33.5558 19.493 32.8609 18.9668 32.3484C18.4407 31.836 17.7273 31.5479 16.9834 31.5473Z" fill="#E81F43"/>
<path d="M31.9365 40C30.7755 40 29.6406 39.6646 28.6753 39.0361C27.7099 38.4077 26.9575 37.5144 26.5132 36.4694C26.0689 35.4243 25.9527 34.2743 26.1792 33.1649C26.4057 32.0554 26.9648 31.0363 27.7857 30.2364C28.6067 29.4366 29.6526 28.8919 30.7913 28.6712C31.93 28.4505 33.1103 28.5638 34.1829 28.9966C35.2555 29.4295 36.1723 30.1626 36.8173 31.1031C37.4623 32.0437 37.8066 33.1495 37.8066 34.2807C37.805 35.797 37.186 37.2509 36.0855 38.3231C34.985 39.3954 33.4929 39.9985 31.9365 40ZM31.9365 31.5473C31.3814 31.5473 30.8388 31.7077 30.3773 32.0082C29.9157 32.3087 29.556 32.7358 29.3437 33.2355C29.1313 33.7352 29.0758 34.285 29.1841 34.8155C29.2925 35.3459 29.5599 35.8331 29.9525 36.2155C30.345 36.5978 30.8452 36.8582 31.3896 36.9635C31.9341 37.0689 32.4984 37.0147 33.0112 36.8075C33.5239 36.6004 33.9622 36.2498 34.2704 35.8C34.5787 35.3502 34.7431 34.8215 34.7429 34.2807C34.7421 33.5558 34.4461 32.8609 33.9199 32.3484C33.3938 31.836 32.6805 31.5479 31.9365 31.5473Z" fill="#E81F43"/>
<path d="M10.4555 11.6905C10.1339 11.6905 9.82053 11.5918 9.55971 11.4086C9.29888 11.2254 9.10385 10.9668 9.00224 10.6696L6.37663 2.98506H1.53186C1.12559 2.98506 0.735952 2.82781 0.448672 2.54791C0.161392 2.26801 0 1.88837 0 1.49253C0 1.09669 0.161392 0.717056 0.448672 0.437152C0.735952 0.157248 1.12559 0 1.53186 0H7.4857C7.80725 2.89873e-05 8.12064 0.0986435 8.38146 0.281872C8.64228 0.4651 8.83731 0.72365 8.93892 1.02089L11.9138 9.72632C11.9905 9.95066 12.0114 10.1895 11.9747 10.4233C11.9381 10.657 11.845 10.8789 11.7031 11.0707C11.5612 11.2626 11.3745 11.4188 11.1585 11.5265C10.9425 11.6343 10.7033 11.6905 10.4606 11.6905H10.4555Z" fill="#E81F43"/>
</g>
<defs>
<filter id="filter0_i_99_2552" x="0" y="0" width="50" height="54" filterUnits="userSpaceOnUse" color-interpolation-filters="sRGB">
<feFlood flood-opacity="0" result="BackgroundImageFix"/>
<feBlend mode="normal" in="SourceGraphic" in2="BackgroundImageFix" result="shape"/>
<feColorMatrix in="SourceAlpha" type="matrix" values="0 0 0 0 0 0 0 0 0 0 0 0 0 0 0 0 0 0 127 0" result="hardAlpha"/>
<feOffset dy="4"/>
<feGaussianBlur stdDeviation="2"/>
<feComposite in2="hardAlpha" operator="arithmetic" k2="-1" k3="1"/>
<feColorMatrix type="matrix" values="0 0 0 0 0 0 0 0 0 0 0 0 0 0 0 0 0 0 0.25 0"/>
<feBlend mode="normal" in2="shape" result="effect1_innerShadow_99_2552"/>
</filter>
</defs>
</svg>
