<svg width="50" height="48" viewBox="0 0 50 48" fill="none" xmlns="http://www.w3.org/2000/svg">
<g filter="url(#filter0_i_99_2547)">
<path fill-rule="evenodd" clip-rule="evenodd" d="M33.3327 18.7501C33.3327 23.3524 29.6016 27.0834 24.9993 27.0834C20.397 27.0834 16.666 23.3524 16.666 18.7501C16.666 14.1477 20.397 10.4167 24.9993 10.4167C29.6016 10.4167 33.3327 14.1477 33.3327 18.7501ZM29.166 18.7501C29.166 21.0513 27.3006 22.9167 24.9993 22.9167C22.6981 22.9167 20.8327 21.0513 20.8327 18.7501C20.8327 16.4489 22.6981 14.5834 24.9993 14.5834C27.3006 14.5834 29.166 16.4489 29.166 18.7501Z" fill="#177BEF" fill-opacity="0.86"/>
<path fill-rule="evenodd" clip-rule="evenodd" d="M25.0007 2.08325C12.3441 2.08325 2.08398 12.3434 2.08398 24.9999C2.08398 37.6564 12.3441 47.9166 25.0007 47.9166C37.6571 47.9166 47.9173 37.6564 47.9173 24.9999C47.9173 12.3434 37.6571 2.08325 25.0007 2.08325ZM6.25065 24.9999C6.25065 29.3545 7.73513 33.3624 10.2256 36.5451C13.6516 32.0601 19.0554 29.1666 25.135 29.1666C31.1357 29.1666 36.4781 31.9855 39.91 36.3714C42.3194 33.2172 43.7506 29.2757 43.7506 24.9999C43.7506 14.6446 35.3561 6.24992 25.0007 6.24992C14.6453 6.24992 6.25065 14.6446 6.25065 24.9999ZM25.0007 43.7499C20.521 43.7499 16.4083 42.1789 13.1833 39.5578C15.8205 35.7941 20.1904 33.3332 25.135 33.3332C30.0182 33.3332 34.3409 35.7335 36.9877 39.4185C33.7379 42.123 29.5592 43.7499 25.0007 43.7499Z" fill="#177BEF" fill-opacity="0.86"/>
</g>
<defs>
<filter id="filter0_i_99_2547" x="0" y="0" width="50" height="54" filterUnits="userSpaceOnUse" color-interpolation-filters="sRGB">
<feFlood flood-opacity="0" result="BackgroundImageFix"/>
<feBlend mode="normal" in="SourceGraphic" in2="BackgroundImageFix" result="shape"/>
<feColorMatrix in="SourceAlpha" type="matrix" values="0 0 0 0 0 0 0 0 0 0 0 0 0 0 0 0 0 0 127 0" result="hardAlpha"/>
<feOffset dy="4"/>
<feGaussianBlur stdDeviation="2"/>
<feComposite in2="hardAlpha" operator="arithmetic" k2="-1" k3="1"/>
<feColorMatrix type="matrix" values="0 0 0 0 0 0 0 0 0 0 0 0 0 0 0 0 0 0 0.25 0"/>
<feBlend mode="normal" in2="shape" result="effect1_innerShadow_99_2547"/>
</filter>
</defs>
</svg>
