<svg width="50" height="48" viewBox="0 0 50 48" fill="none" xmlns="http://www.w3.org/2000/svg">
<g filter="url(#filter0_i_99_2550)">
<path fill-rule="evenodd" clip-rule="evenodd" d="M25.0263 11.6077L22.7617 9.34312C18.287 4.86837 11.032 4.86837 6.55725 9.34312C2.08248 13.8179 2.08248 21.0729 6.55725 25.5477L24.9715 43.9619L24.9753 43.9581L25.0301 44.0129L43.4442 25.5988C47.919 21.124 47.919 13.869 43.4442 9.39425C38.9696 4.91948 31.7146 4.91948 27.2399 9.39425L25.0263 11.6077ZM24.9753 38.0656L35.259 27.7817L38.2815 24.8629L38.2846 24.8659L40.498 22.6525C43.3457 19.8049 43.3457 15.1881 40.498 12.3405C37.6505 9.49296 33.0336 9.49296 30.1861 12.3405L25.0286 17.498L25.0134 17.4829L25.0113 17.4852L19.8155 12.2894C16.9679 9.44183 12.3511 9.44183 9.50352 12.2894C6.65593 15.137 6.65593 19.7538 9.50352 22.6015L14.794 27.8919L14.7977 27.8881L24.9753 38.0656Z" fill="#8F1FE8" fill-opacity="0.86"/>
</g>
<defs>
<filter id="filter0_i_99_2550" x="0" y="0" width="50" height="54" filterUnits="userSpaceOnUse" color-interpolation-filters="sRGB">
<feFlood flood-opacity="0" result="BackgroundImageFix"/>
<feBlend mode="normal" in="SourceGraphic" in2="BackgroundImageFix" result="shape"/>
<feColorMatrix in="SourceAlpha" type="matrix" values="0 0 0 0 0 0 0 0 0 0 0 0 0 0 0 0 0 0 127 0" result="hardAlpha"/>
<feOffset dy="4"/>
<feGaussianBlur stdDeviation="2"/>
<feComposite in2="hardAlpha" operator="arithmetic" k2="-1" k3="1"/>
<feColorMatrix type="matrix" values="0 0 0 0 0 0 0 0 0 0 0 0 0 0 0 0 0 0 0.25 0"/>
<feBlend mode="normal" in2="shape" result="effect1_innerShadow_99_2550"/>
</filter>
</defs>
</svg>
