<svg width="40" height="40" viewBox="0 0 40 40" fill="none" xmlns="http://www.w3.org/2000/svg">
<g filter="url(#filter0_i_346_104)">
<path fill-rule="evenodd" clip-rule="evenodd" d="M26.6663 14.9997C26.6663 18.6815 23.6815 21.6663 19.9997 21.6663C16.3178 21.6663 13.333 18.6815 13.333 14.9997C13.333 11.3178 16.3178 8.33301 19.9997 8.33301C23.6815 8.33301 26.6663 11.3178 26.6663 14.9997ZM23.333 14.9997C23.333 16.8407 21.8407 18.333 19.9997 18.333C18.1587 18.333 16.6663 16.8407 16.6663 14.9997C16.6663 13.1587 18.1587 11.6663 19.9997 11.6663C21.8407 11.6663 23.333 13.1587 23.333 14.9997Z" fill="#177BEF" fill-opacity="0.86"/>
<path fill-rule="evenodd" clip-rule="evenodd" d="M20.5 2C10.835 2 3 9.83502 3 19.5C3 29.1649 10.835 37 20.5 37C30.1649 37 38 29.1649 38 19.5C38 9.83502 30.1649 2 20.5 2ZM6.18182 19.5C6.18182 22.8253 7.31542 25.8859 9.21724 28.3163C11.8334 24.8914 15.96 22.6818 20.6026 22.6818C25.1849 22.6818 29.2646 24.8345 31.8853 28.1837C33.7252 25.775 34.8182 22.7652 34.8182 19.5C34.8182 11.5923 28.4078 5.18182 20.5 5.18182C12.5923 5.18182 6.18182 11.5923 6.18182 19.5ZM20.5 33.8182C17.0792 33.8182 13.9385 32.6185 11.4758 30.617C13.4897 27.7428 16.8267 25.8636 20.6026 25.8636C24.3315 25.8636 27.6325 27.6965 29.6538 30.5105C27.1721 32.5758 23.9811 33.8182 20.5 33.8182Z" fill="#177BEF" fill-opacity="0.86"/>
</g>
<defs>
<filter id="filter0_i_346_104" x="0" y="0" width="40" height="44" filterUnits="userSpaceOnUse" color-interpolation-filters="sRGB">
<feFlood flood-opacity="0" result="BackgroundImageFix"/>
<feBlend mode="normal" in="SourceGraphic" in2="BackgroundImageFix" result="shape"/>
<feColorMatrix in="SourceAlpha" type="matrix" values="0 0 0 0 0 0 0 0 0 0 0 0 0 0 0 0 0 0 127 0" result="hardAlpha"/>
<feOffset dy="4"/>
<feGaussianBlur stdDeviation="2"/>
<feComposite in2="hardAlpha" operator="arithmetic" k2="-1" k3="1"/>
<feColorMatrix type="matrix" values="0 0 0 0 0 0 0 0 0 0 0 0 0 0 0 0 0 0 0.25 0"/>
<feBlend mode="normal" in2="shape" result="effect1_innerShadow_346_104"/>
</filter>
</defs>
</svg>
