<svg width="35" height="35" viewBox="0 0 35 35" fill="none" xmlns="http://www.w3.org/2000/svg">
<path d="M30.5677 23.3333H12.2373C11.9331 23.3338 11.6379 23.2335 11.4 23.0489C11.1621 22.8642 10.9957 22.6062 10.9282 22.3173L7.84168 9.21571C7.79653 9.02432 7.79626 8.82548 7.84089 8.63399C7.88552 8.44249 7.9739 8.26326 8.09945 8.10964C8.225 7.95602 8.38449 7.83196 8.56605 7.7467C8.74761 7.66144 8.94657 7.61718 9.14812 7.61719H33.6568C33.8586 7.61678 34.0579 7.66076 34.2398 7.74585C34.4217 7.83094 34.5815 7.95495 34.7074 8.10862C34.8332 8.26229 34.9218 8.44166 34.9666 8.63335C35.0114 8.82504 35.0112 9.02411 34.966 9.21571L31.8741 22.3173C31.8067 22.6058 31.6407 22.8635 31.4034 23.048C31.166 23.2326 30.8714 23.3332 30.5677 23.3333ZM13.3042 20.7214H29.5007L31.9733 10.2318H10.8308L13.3042 20.7214Z" fill="#E81F43"/>
<path d="M14.861 35.0002C13.8451 35.0002 12.8521 34.7067 12.0074 34.1568C11.1627 33.6069 10.5044 32.8253 10.1156 31.9109C9.72683 30.9964 9.62512 29.9902 9.82331 29.0194C10.0215 28.0486 10.5107 27.1569 11.229 26.457C11.9474 25.7571 12.8626 25.2805 13.859 25.0874C14.8553 24.8943 15.8881 24.9934 16.8266 25.3722C17.7652 25.7509 18.5674 26.3924 19.1318 27.2154C19.6962 28.0384 19.9974 29.0059 19.9974 29.9957C19.996 31.3226 19.4544 32.5947 18.4914 33.5329C17.5285 34.4711 16.2228 34.9989 14.861 35.0002ZM14.861 27.604C14.3753 27.604 13.9005 27.7444 13.4967 28.0073C13.0928 28.2703 12.7781 28.644 12.5922 29.0812C12.4064 29.5184 12.3578 29.9995 12.4527 30.4637C12.5475 30.9278 12.7814 31.3541 13.125 31.6887C13.4685 32.0233 13.9061 32.2511 14.3825 32.3433C14.8589 32.4355 15.3527 32.388 15.8014 32.2068C16.25 32.0256 16.6335 31.7188 16.9032 31.3252C17.1729 30.9316 17.3168 30.469 17.3166 29.9957C17.3159 29.3615 17.0569 28.7534 16.5966 28.305C16.1362 27.8566 15.512 27.6045 14.861 27.604Z" fill="#E81F43"/>
<path d="M27.945 35.0002C26.9291 35.0002 25.936 34.7067 25.0914 34.1568C24.2467 33.6069 23.5883 32.8253 23.1996 31.9109C22.8108 30.9964 22.7091 29.9902 22.9073 29.0194C23.1055 28.0486 23.5947 27.1569 24.313 26.457C25.0314 25.7571 25.9466 25.2805 26.9429 25.0874C27.9393 24.8943 28.9721 24.9934 29.9106 25.3722C30.8492 25.7509 31.6514 26.3924 32.2158 27.2154C32.7802 28.0384 33.0814 29.0059 33.0814 29.9957C33.08 31.3226 32.5384 32.5947 31.5754 33.5329C30.6125 34.4711 29.3068 34.9989 27.945 35.0002ZM27.945 27.604C27.4593 27.604 26.9845 27.7444 26.5806 28.0073C26.1768 28.2703 25.8621 28.644 25.6762 29.0812C25.4904 29.5184 25.4418 29.9995 25.5366 30.4637C25.6315 30.9278 25.8654 31.3541 26.2089 31.6887C26.5524 32.0233 26.9901 32.2511 27.4665 32.3433C27.9429 32.4355 28.4367 32.388 28.8853 32.2068C29.334 32.0256 29.7175 31.7188 29.9872 31.3252C30.2569 30.9316 30.4008 30.469 30.4006 29.9957C30.3999 29.3615 30.1409 28.7534 29.6805 28.305C29.2201 27.8566 28.596 27.6045 27.945 27.604Z" fill="#E81F43"/>
<path d="M9.14866 10.2293C8.8673 10.2293 8.59308 10.143 8.36486 9.98266C8.13663 9.82233 7.96598 9.5961 7.87707 9.33601L5.57963 2.61196H1.3404C0.984901 2.61196 0.643966 2.47436 0.392593 2.22945C0.14122 1.98453 0 1.65235 0 1.30598C0 0.959612 0.14122 0.627431 0.392593 0.382512C0.643966 0.137594 0.984901 0 1.3404 0H6.55007C6.83143 2.53642e-05 7.10565 0.0863141 7.33388 0.246641C7.5621 0.406967 7.73275 0.633201 7.82166 0.893289L10.4247 8.51063C10.4918 8.70692 10.5101 8.91595 10.478 9.12047C10.446 9.325 10.3645 9.51918 10.2403 9.68701C10.1162 9.85485 9.95283 9.99154 9.76381 10.0858C9.57478 10.1801 9.36548 10.2293 9.15313 10.2293H9.14866Z" fill="#E81F43"/>
</svg>
