<svg width="70" height="70" viewBox="0 0 70 70" fill="none" xmlns="http://www.w3.org/2000/svg">
<path d="M35 30.625C37.4162 30.625 39.375 28.6662 39.375 26.25C39.375 23.8338 37.4162 21.875 35 21.875C32.5838 21.875 30.625 23.8338 30.625 26.25C30.625 28.6662 32.5838 30.625 35 30.625Z" stroke="#177BEF" stroke-opacity="0.86" stroke-width="2" stroke-linecap="round" stroke-linejoin="round"/>
<path d="M46.4628 26.0453C46.5062 27.9759 46.0222 29.8818 45.0628 31.5578C42.7003 35.4369 35.0003 46.6661 35.0003 46.6661C35.0003 46.6661 27.3003 35.4369 24.9378 31.5578C23.9785 29.8818 23.4945 27.9759 23.5378 26.0453C23.5378 23.0052 24.7455 20.0897 26.8951 17.9401C29.0448 15.7904 31.9603 14.5828 35.0003 14.5828C38.0404 14.5828 40.9559 15.7904 43.1055 17.9401C45.2552 20.0897 46.4628 23.0052 46.4628 26.0453V26.0453Z" stroke="#177BEF" stroke-opacity="0.86" stroke-width="2" stroke-linecap="round" stroke-linejoin="round"/>
<path d="M38.6167 41.3574C41.5333 42.2616 43.75 44.2741 43.75 46.6658C43.75 49.8741 39.8417 52.4991 35 52.4991C30.1583 52.4991 26.25 49.8741 26.25 46.6658C26.25 44.3033 28.35 42.2616 31.3833 41.3574" stroke="#177BEF" stroke-opacity="0.86" stroke-width="2" stroke-linecap="round" stroke-linejoin="round"/>
</svg>
