<svg width="35" height="35" viewBox="0 0 35 35" fill="none" xmlns="http://www.w3.org/2000/svg">
<path d="M14.5586 0C6.84136 0 0.599609 6.09868 0.599609 13.639C0.599609 21.1793 6.84136 27.2779 14.5586 27.2779C17.3138 27.2779 19.8637 26.4882 22.0256 25.1468L32.1099 35L35.5996 31.5903L25.6436 21.8875C27.4334 19.5935 28.5175 16.751 28.5175 13.639C28.5175 6.09868 22.2757 0 14.5586 0ZM14.5586 3.20917C20.4699 3.20917 25.233 7.86309 25.233 13.639C25.233 19.4148 20.4699 24.0688 14.5586 24.0688C8.64717 24.0688 3.88407 19.4148 3.88407 13.639C3.88407 7.86309 8.64717 3.20917 14.5586 3.20917Z" fill="#2CD93D"/>
</svg>
