<svg width="37" height="37" viewBox="0 0 37 37" fill="none" xmlns="http://www.w3.org/2000/svg">
<path d="M22.5635 7.66667C24.1914 7.98428 25.6875 8.78043 26.8603 9.95323C28.0331 11.126 28.8293 12.6221 29.1469 14.25L22.5635 7.66667ZM22.5635 1C25.9457 1.37573 29.0995 2.89029 31.5073 5.29501C33.915 7.69973 35.4335 10.8517 35.8135 14.2333L22.5635 1ZM34.1469 27.5333V32.5333C34.1487 32.9975 34.0537 33.457 33.8677 33.8822C33.6818 34.3075 33.409 34.6893 33.067 35.0031C32.725 35.3169 32.3212 35.5558 31.8814 35.7045C31.4417 35.8532 30.9758 35.9085 30.5135 35.8667C25.3849 35.3094 20.4585 33.5569 16.1302 30.75C12.1032 28.1911 8.68909 24.777 6.1302 20.75C3.31349 16.402 1.5606 11.4517 1.01353 6.3C0.971879 5.83911 1.02665 5.3746 1.17436 4.93604C1.32207 4.49748 1.55948 4.09448 1.87147 3.7527C2.18346 3.41092 2.5632 3.13785 2.98651 2.95087C3.40982 2.76389 3.86743 2.6671 4.3302 2.66667H9.3302C10.139 2.65871 10.9232 2.94513 11.5365 3.47255C12.1497 3.99998 12.5503 4.73241 12.6635 5.53333C12.8746 7.13344 13.2659 8.70455 13.8302 10.2167C14.0544 10.8132 14.103 11.4615 13.97 12.0848C13.8371 12.7081 13.5283 13.2802 13.0802 13.7333L10.9635 15.85C13.3361 20.0226 16.791 23.4774 20.9635 25.85L23.0802 23.7333C23.5333 23.2852 24.1055 22.9764 24.7287 22.8435C25.352 22.7106 26.0003 22.7591 26.5969 22.9833C28.109 23.5476 29.6801 23.939 31.2802 24.15C32.0898 24.2642 32.8292 24.672 33.3578 25.2958C33.8863 25.9196 34.1671 26.716 34.1469 27.5333Z" stroke="#177BEF" stroke-opacity="0.86" stroke-width="2" stroke-linecap="round" stroke-linejoin="round"/>
</svg>
