<svg width="50" height="50" viewBox="0 0 50 50" fill="none" xmlns="http://www.w3.org/2000/svg">
<g filter="url(#filter0_i_99_2558)">
<path d="M24 3C14.6016 3 7 10.6016 7 20C7 29.3984 14.6016 37 24 37C27.3555 37 30.4609 36.0156 33.0938 34.3437L45.375 46.625L49.625 42.375L37.5 30.2812C39.6797 27.4219 41 23.8789 41 20C41 10.6016 33.3984 3 24 3ZM24 7C31.1992 7 37 12.8008 37 20C37 27.1992 31.1992 33 24 33C16.8008 33 11 27.1992 11 20C11 12.8008 16.8008 7 24 7Z" fill="#2CD93D"/>
</g>
<defs>
<filter id="filter0_i_99_2558" x="0" y="0" width="50" height="54" filterUnits="userSpaceOnUse" color-interpolation-filters="sRGB">
<feFlood flood-opacity="0" result="BackgroundImageFix"/>
<feBlend mode="normal" in="SourceGraphic" in2="BackgroundImageFix" result="shape"/>
<feColorMatrix in="SourceAlpha" type="matrix" values="0 0 0 0 0 0 0 0 0 0 0 0 0 0 0 0 0 0 127 0" result="hardAlpha"/>
<feOffset dy="4"/>
<feGaussianBlur stdDeviation="2"/>
<feComposite in2="hardAlpha" operator="arithmetic" k2="-1" k3="1"/>
<feColorMatrix type="matrix" values="0 0 0 0 0 0 0 0 0 0 0 0 0 0 0 0 0 0 0.25 0"/>
<feBlend mode="normal" in2="shape" result="effect1_innerShadow_99_2558"/>
</filter>
</defs>
</svg>
