<svg width="50" height="50" viewBox="0 0 50 50" fill="none" xmlns="http://www.w3.org/2000/svg">
<path d="M25 48.4375C20.3645 48.4375 15.8331 47.0629 11.9788 44.4876C8.12456 41.9122 5.12051 38.2518 3.34658 33.9692C1.57266 29.6865 1.10851 24.974 2.01286 20.4276C2.9172 15.8812 5.1494 11.705 8.42719 8.42719C11.705 5.1494 15.8812 2.9172 20.4276 2.01286C24.974 1.10851 29.6865 1.57266 33.9692 3.34658C38.2518 5.12051 41.9122 8.12456 44.4876 11.9788C47.0629 15.8331 48.4375 20.3645 48.4375 25C48.4375 31.216 45.9682 37.1774 41.5728 41.5728C37.1774 45.9682 31.216 48.4375 25 48.4375ZM25 4.68751C20.9826 4.68751 17.0554 5.87882 13.715 8.11078C10.3746 10.3427 7.77111 13.5151 6.23371 17.2268C4.6963 20.9384 4.29405 25.0225 5.07781 28.9628C5.86157 32.903 7.79615 36.5224 10.6369 39.3631C13.4777 42.2039 17.097 44.1384 21.0372 44.9222C24.9775 45.706 29.0616 45.3037 32.7733 43.7663C36.4849 42.2289 39.6573 39.6254 41.8892 36.285C44.1212 32.9447 45.3125 29.0174 45.3125 25C45.3125 19.6128 43.1724 14.4462 39.3631 10.6369C35.5538 6.82757 30.3872 4.68751 25 4.68751Z" fill="#E81F43" fill-opacity="0.72"/>
<path d="M25 37.5C24.3819 37.5 23.7778 37.3167 23.2638 36.9734C22.7499 36.63 22.3494 36.1419 22.1129 35.5709C21.8764 34.9999 21.8145 34.3715 21.935 33.7653C22.0556 33.1592 22.3533 32.6023 22.7903 32.1653C23.2273 31.7283 23.7842 31.4306 24.3903 31.31C24.9965 31.1895 25.6249 31.2514 26.1959 31.4879C26.7669 31.7244 27.255 32.1249 27.5984 32.6388C27.9417 33.1527 28.125 33.7569 28.125 34.375C28.125 35.2038 27.7958 35.9987 27.2097 36.5847C26.6237 37.1708 25.8288 37.5 25 37.5Z" fill="#E81F43" fill-opacity="0.72"/>
<path d="M25 28.125C24.5856 28.125 24.1882 27.9604 23.8951 27.6674C23.6021 27.3743 23.4375 26.9769 23.4375 26.5625V12.5C23.4375 12.0856 23.6021 11.6882 23.8951 11.3951C24.1882 11.1021 24.5856 10.9375 25 10.9375C25.4144 10.9375 25.8118 11.1021 26.1049 11.3951C26.3979 11.6882 26.5625 12.0856 26.5625 12.5V26.5625C26.5625 26.9769 26.3979 27.3743 26.1049 27.6674C25.8118 27.9604 25.4144 28.125 25 28.125Z" fill="#E81F43" fill-opacity="0.72"/>
</svg>
